PathFileType	4	(X/Y/Z)	S15T1V11.trc
DataRate	CameraRate	NumFrames	NumMarkers	Units	OrigDataRate	OrigDataStartFrame	OrigNumFrames
200	200	4	39	mm	200	13	99
Frame#	Time	LSHO			RSHO			LICST			RICST			LASIS			RASIS			LTROC			RTROC			SACR			LTH1			LTH2			LTH3			LTH4			RTH1			RTH2			RTH3			RTH4			LLEP			RLEP			LSK1			LSK2			LSK3			LSK4			RSK1			RSK2			RSK3			RSK4			LLME			RLME			LTOE			LHM5			LHEEL			RTOE			RHM5			RHEEL			RFT1			RFT2			LFT1			LFT2		
		X1	Y1	Z1	X2	Y2	Z2	X3	Y3	Z3	X4	Y4	Z4	X5	Y5	Z5	X6	Y6	Z6	X7	Y7	Z7	X8	Y8	Z8	X9	Y9	Z9	X10	Y10	Z10	X11	Y11	Z11	X12	Y12	Z12	X13	Y13	Z13	X14	Y14	Z14	X15	Y15	Z15	X16	Y16	Z16	X17	Y17	Z17	X18	Y18	Z18	X19	Y19	Z19	X20	Y20	Z20	X21	Y21	Z21	X22	Y22	Z22	X23	Y23	Z23	X24	Y24	Z24	X25	Y25	Z25	X26	Y26	Z26	X27	Y27	Z27	X28	Y28	Z28	X29	Y29	Z29	X30	Y30	Z30	X31	Y31	Z31	X32	Y32	Z32	X33	Y33	Z33	X34	Y34	Z34	X35	Y35	Z35	X36	Y36	Z36	X37	Y37	Z37	X38	Y38	Z38	X39	Y39	Z39

13	0.060000	-89.420705	1449.811683	-424.539066	-156.208723	1446.418279	-110.677966	-79.984800	1039.336359	-418.437332	-87.021592	1051.275658	-107.110972	-42.848574	975.832786	-407.450572	-35.806094	1001.767099	-127.343553	-187.092124	965.330008	-399.808844	-136.014215	935.368109	-95.436553	-192.448914	1042.700886	-264.037553	-167.550337	720.649080	-424.784900	-244.634004	750.031010	-402.854465	-206.427091	627.347621	-415.409022	-277.656034	652.325050	-391.538654	25.933104	750.913088	-95.340072	-47.534732	721.007651	-102.762047	65.565388	661.413694	-109.452415	-7.346212	629.523383	-115.394339	-303.834518	539.885424	-398.469985	66.136422	529.281624	-118.148337	-356.592250	443.889426	-397.081139	-411.756997	501.340791	-373.949141	-427.813993	373.694267	-378.016415	-477.160786	430.846764	-350.367183	126.516230	435.426834	-133.194942	50.990702	420.873571	-105.880615	148.670384	337.673849	-145.926233	67.761014	317.354457	-122.021878	-559.070867	265.395422	-334.670476	137.869354	139.687738	-157.015561	-497.153828	93.173999	-308.270627	-551.077213	130.378731	-355.858271	-594.175282	306.144087	-266.559890	315.692062	183.502061	-191.694653	274.714899	131.774703	-135.394127	90.088864	109.751148	-215.505485	116.495886	92.554617	-249.632792	104.004188	79.568625	-193.490091	-603.424243	284.354075	-235.312558	-624.029704	290.888510	-286.019018
14	0.065000	-73.609126	1449.958554	-423.669267	-139.798617	1446.006229	-109.709291	-63.214939	1039.669489	-418.361749	-70.134727	1050.494075	-106.907632	-25.924789	976.310542	-407.459320	-18.687206	1001.164993	-127.181149	-170.187306	965.538492	-400.517583	-119.432741	934.420000	-95.931966	-175.492754	1042.399132	-264.041389	-149.971225	720.590144	-425.282893	-227.063746	749.723141	-403.200595	-188.661324	627.213720	-416.334724	-259.900129	651.982243	-392.163762	41.490824	749.400520	-94.517596	-32.130952	719.901310	-102.824434	80.770596	659.744526	-108.783062	7.687028	628.254606	-115.594184	-286.198735	540.198343	-399.742113	81.438250	527.856124	-118.596685	-340.937943	445.358111	-398.223980	-394.691311	504.016476	-374.882942	-413.599536	376.821037	-378.898158	-461.541839	435.004890	-351.128846	143.130538	434.820907	-133.550386	67.617633	419.213661	-106.761169	166.657997	337.375737	-146.409528	85.852903	315.935786	-123.109168	-546.919024	271.615604	-335.219219	158.824191	138.978501	-158.170468	-487.897572	97.664995	-309.609673	-541.325661	136.523297	-356.767751	-580.925748	313.091821	-266.906743	336.246474	185.910505	-192.069067	295.822813	132.899560	-136.306077	111.652850	108.470460	-217.001492	138.517807	91.902897	-251.173371	125.985283	78.294888	-195.117424	-590.556222	291.372571	-235.652855	-611.081917	298.468129	-286.356586
15	0.070000	-57.836448	1449.781354	-422.846478	-123.350458	1445.334354	-108.717138	-46.464368	1039.701482	-418.281533	-53.314464	1049.441865	-106.656408	-9.006168	976.509549	-407.412220	-1.602683	1000.331229	-126.960199	-153.263184	965.390029	-401.261543	-102.903160	933.211107	-96.421330	-158.580300	1041.819187	-264.068029	-132.155329	720.135502	-425.812483	-209.302215	748.913480	-403.597204	-170.542044	626.630543	-417.319601	-241.829063	651.090397	-392.868680	57.093938	747.704270	-93.778103	-16.663331	718.579088	-102.912900	96.052464	657.913142	-108.218190	22.813878	626.793123	-115.848940	-268.081237	539.977342	-401.107654	96.761480	526.246046	-119.110095	-324.828326	446.373975	-399.400103	-377.104232	506.263928	-375.916223	-398.944135	379.591302	-379.766093	-445.422995	438.828755	-351.943176	159.514476	433.903715	-133.979576	84.008194	417.450650	-107.703010	184.141080	336.740181	-146.963903	103.423734	314.403673	-124.238610	-534.341460	277.662651	-335.701685	178.683076	138.099428	-159.350835	-478.073559	102.317541	-310.937458	-531.017139	142.705899	-357.666480	-567.331428	319.733314	-267.156173	355.756003	187.549687	-192.364916	315.704725	133.517480	-137.133640	132.086761	107.168572	-218.545292	159.338543	91.103239	-252.714304	146.703225	77.011418	-196.765871	-577.297894	298.065014	-235.909060	-597.743603	305.713750	-286.592402
16	0.075000	-42.098596	1449.279878	-422.071698	-106.867521	1444.397034	-107.705192	-29.732116	1039.427127	-418.190982	-36.561566	1048.129573	-106.356399	7.904381	976.421914	-407.303817	15.443579	999.274244	-126.679560	-136.323724	964.882252	-402.022814	-86.418574	931.753606	-96.891826	-141.713897	1040.961888	-264.110371	-114.121140	719.290218	-426.377338	-191.366960	747.612292	-404.048725	-152.092967	625.605516	-418.367974	-223.465603	649.660845	-393.659505	72.755351	745.838927	-93.133458	-1.118664	717.052723	-103.024209	111.424343	655.934242	-107.767810	38.048369	625.151226	-116.153573	-249.509943	539.232972	-402.568600	112.120170	524.460949	-119.685233	-308.276363	446.943696	-400.616108	-359.015465	508.078348	-377.051553	-383.846888	382.000699	-380.629965	-428.810258	442.304024	-352.814145	175.686798	432.676591	-134.489109	100.179528	415.581962	-108.694070	201.140173	335.758468	-147.598939	120.491622	312.745191	-125.400926	-521.315693	283.511095	-336.126975	197.459903	137.025962	-160.560425	-467.675294	107.076945	-312.257408	-520.144397	148.876489	-358.559264	-553.362397	326.055725	-267.319212	374.244847	188.378173	-192.617436	334.383701	133.596383	-137.900373	151.394154	105.828952	-220.132630	178.955183	90.132766	-254.254121	166.159346	75.700443	-198.429432	-563.623584	304.418566	-236.090897	-583.991898	312.612895	-286.734066
